<?xml version="1.0" encoding="utf-8"?>
<!-- Generator: Adobe Illustrator 16.0.0, SVG Export Plug-In . SVG Version: 6.00 Build 0)  -->
<!DOCTYPE svg PUBLIC "-//W3C//DTD SVG 1.1//EN" "http://www.w3.org/Graphics/SVG/1.1/DTD/svg11.dtd">
<svg version="1.1" id="Capa_1" xmlns="http://www.w3.org/2000/svg" xmlns:xlink="http://www.w3.org/1999/xlink" x="0px" y="0px"
	 width="460px" height="160px" viewBox="0 0 460 160" enable-background="new 0 0 460 160" xml:space="preserve">
<g>
	<defs>
		<rect id="SVGID_1_" x="-366" y="-343.89" width="1190.55" height="841.89"/>
	</defs>
	<clipPath id="SVGID_2_">
		<use xlink:href="#SVGID_1_"  overflow="visible"/>
	</clipPath>
	<path clip-path="url(#SVGID_2_)" fill="#FFFFFF" d="M82.729,83.679c-13.201,0-22.073-5.552-22.073-13.801V45.801H71.34v22.928
		c0,3.69,4.361,5.987,11.388,5.987c6.917,0,11.388-2.35,11.388-5.987V45.801h10.679v24.076
		C104.795,78.127,95.927,83.679,82.729,83.679"/>
	<polygon clip-path="url(#SVGID_2_)" fill="#FFFFFF" points="40.803,82.676 30.114,82.676 30.114,54.708 13.628,54.708 
		13.628,45.801 57.29,45.801 57.29,54.708 40.803,54.708 	"/>
	<polygon clip-path="url(#SVGID_2_)" fill="#FFFFFF" points="151.056,82.676 113.75,82.676 113.75,45.801 124.433,45.801 
		124.433,73.756 151.056,73.756 	"/>
	<path clip-path="url(#SVGID_2_)" fill="#FFFFFF" d="M176.062,83.679c-13.201,0-22.069-5.552-22.069-13.801V45.801h10.679v22.928
		c0,3.69,4.363,5.987,11.39,5.987c6.918,0,11.386-2.35,11.386-5.987V45.801h10.683v24.076
		C198.131,78.127,189.261,83.679,176.062,83.679"/>
	<polygon clip-path="url(#SVGID_2_)" fill="#FFFFFF" points="255.441,82.676 241.201,82.676 225.337,66.434 217.765,71.754 
		217.765,82.676 207.085,82.676 207.085,45.801 217.765,45.801 217.765,60.851 239.07,45.801 254.563,45.801 233.58,60.663 	"/>
	<path clip-path="url(#SVGID_2_)" fill="#FFFFFF" d="M302.668,82.676h-11.077l-3.968-7.46h-20.811l-3.966,7.46h-11.082l19.61-36.875
		h11.742L302.668,82.676z M271.464,66.3h11.412l-5.704-10.65L271.464,66.3z"/>
	<polygon clip-path="url(#SVGID_2_)" fill="#E6332A" points="47.771,99.003 61.028,99.003 61.028,100.494 49.289,100.494 
		49.289,109.152 59.461,109.152 59.461,110.59 49.289,110.59 49.289,119.044 47.771,119.044 	"/>
	<rect x="67.44" y="99.003" clip-path="url(#SVGID_2_)" fill="#E6332A" width="1.517" height="20.041"/>
	<polygon clip-path="url(#SVGID_2_)" fill="#E6332A" points="74.561,99.003 90.542,99.003 90.542,100.494 83.296,100.494 
		83.296,119.044 81.779,119.044 81.779,100.494 74.561,100.494 	"/>
	<polygon clip-path="url(#SVGID_2_)" fill="#E6332A" points="96.18,119.044 96.18,99.003 97.542,99.003 111.415,116.447 
		111.415,99.003 112.932,99.003 112.932,119.044 111.57,119.044 97.697,101.625 97.697,119.044 	"/>
	<polygon clip-path="url(#SVGID_2_)" fill="#E6332A" points="120.73,99.003 134.501,99.003 134.501,100.494 122.248,100.494 
		122.248,108.483 132.678,108.483 132.678,109.924 122.248,109.924 122.248,117.554 134.501,117.554 134.501,119.044 
		120.73,119.044 	"/>
	<path clip-path="url(#SVGID_2_)" fill="#E6332A" d="M140.658,114.033v0.103c0,2.235,2.415,3.879,6.292,3.879
		c3.728,0,5.732-1.566,5.732-3.725c0-2.619-2.827-3.545-6.218-4.573c-3.264-1-7.143-2.237-7.143-5.857
		c0-3.136,2.774-5.241,7.118-5.241c4.419,0,7.5,2.184,7.5,5.189v0.232h-1.489v-0.13c0-2.235-2.286-3.88-6.011-3.88
		c-3.573,0-5.524,1.566-5.524,3.726c0,2.57,2.722,3.467,5.986,4.496c3.211,0.978,7.398,2.211,7.398,5.961
		c0,3.161-2.902,5.215-7.349,5.215c-4.57,0-7.782-2.156-7.782-5.191v-0.203H140.658z"/>
	<path clip-path="url(#SVGID_2_)" fill="#E6332A" d="M160.812,114.033v0.103c0,2.235,2.416,3.879,6.292,3.879
		c3.729,0,5.732-1.566,5.732-3.725c0-2.619-2.827-3.545-6.217-4.573c-3.265-1-7.144-2.237-7.144-5.857
		c0-3.136,2.774-5.241,7.119-5.241c4.418,0,7.5,2.184,7.5,5.189v0.232h-1.49v-0.13c0-2.235-2.285-3.88-6.01-3.88
		c-3.574,0-5.525,1.566-5.525,3.726c0,2.57,2.722,3.467,5.986,4.496c3.211,0.978,7.398,2.211,7.398,5.961
		c0,3.161-2.902,5.215-7.349,5.215c-4.57,0-7.781-2.156-7.781-5.191v-0.203H160.812z"/>
	<path clip-path="url(#SVGID_2_)" fill="#E6332A" d="M209.851,114.188c-1.799,3.134-5.19,5.238-9.045,5.238
		c-5.779,0-10.455-4.647-10.455-10.403c0-5.729,4.676-10.405,10.455-10.405c3.83,0,7.196,2.106,9.02,5.215l-1.387,0.668
		c-1.567-2.594-4.394-4.369-7.633-4.369c-4.905,0-8.915,4.011-8.915,8.892c0,4.906,4.01,8.89,8.915,8.89
		c3.264,0,6.091-1.775,7.658-4.394L209.851,114.188z"/>
	<polygon clip-path="url(#SVGID_2_)" fill="#E6332A" points="215.98,99.003 217.497,99.003 217.497,117.554 229.084,117.554 
		229.084,119.044 215.98,119.044 	"/>
	<path clip-path="url(#SVGID_2_)" fill="#E6332A" d="M250.239,99.003v12.46c0,4.496-2.93,7.965-8.401,7.965
		s-8.401-3.469-8.401-7.965v-12.46h1.518v12.409c0,3.776,2.412,6.526,6.884,6.526c4.496,0,6.887-2.75,6.887-6.526V99.003H250.239z"
		/>
	<path clip-path="url(#SVGID_2_)" fill="#E6332A" d="M257.783,99.003h9.045c3.88,0,5.884,2.415,5.884,5.164
		c0,2.081-1.184,3.828-3.032,4.627c2.363,0.718,3.853,2.619,3.853,4.905c0,2.876-2.285,5.345-5.831,5.345h-9.918V99.003z
		 M259.3,100.441v7.811h7.862c2.44,0,4.007-1.874,4.007-3.931c0-2.03-1.489-3.88-4.418-3.88H259.3z M259.3,109.537v8.095h8.271
		c2.75,0,4.42-1.954,4.42-4.088c0-2.106-1.67-4.007-4.42-4.007H259.3z"/>
</g>
<g>
	<defs>
		<path id="SVGID_3_" d="M319.507,77.841c0,35.412,28.706,64.119,64.117,64.119c35.412,0,64.118-28.707,64.118-64.119
			c0-35.411-28.706-64.117-64.118-64.117C348.213,13.724,319.507,42.43,319.507,77.841"/>
	</defs>
	<clipPath id="SVGID_4_">
		<use xlink:href="#SVGID_3_"  overflow="visible"/>
	</clipPath>
	<rect x="290.204" y="11.433" clip-path="url(#SVGID_4_)" width="250.259" height="136.809"/>
</g>
<g>
	<defs>
		<path id="SVGID_5_" d="M388.16,103.952c-1.497,4.827-0.601,12.366-0.601,12.366c3.326,6.025,6.081-2.112,6.081-2.112l-2.534-7.34
			c0,0-0.835-4.488-1.901-4.488C388.873,102.378,388.519,102.813,388.16,103.952"/>
	</defs>
	<clipPath id="SVGID_6_">
		<use xlink:href="#SVGID_5_"  overflow="visible"/>
	</clipPath>
	
		<linearGradient id="SVGID_7_" gradientUnits="userSpaceOnUse" x1="-366" y1="497.9961" x2="-365" y2="497.9961" gradientTransform="matrix(88.8154 120.535 120.535 -88.8154 -27189.3672 88376.7109)">
		<stop  offset="0" style="stop-color:#838382"/>
		<stop  offset="0.0056" style="stop-color:#838382"/>
		<stop  offset="0.2086" style="stop-color:#E5E5E5"/>
		<stop  offset="0.2822" style="stop-color:#FFFFFF"/>
		<stop  offset="0.3223" style="stop-color:#F3F3F3"/>
		<stop  offset="0.4015" style="stop-color:#D2D2D2"/>
		<stop  offset="0.4049" style="stop-color:#D0D0D0"/>
		<stop  offset="0.5955" style="stop-color:#ACACAC"/>
		<stop  offset="0.6994" style="stop-color:#E0E0E0"/>
		<stop  offset="0.7485" style="stop-color:#BDBCBC"/>
		<stop  offset="0.9939" style="stop-color:#FFFFFF"/>
		<stop  offset="1" style="stop-color:#FFFFFF"/>
	</linearGradient>
	<polygon clip-path="url(#SVGID_6_)" fill="url(#SVGID_7_)" points="391.186,99.046 403.176,115.318 389.118,125.677 
		377.128,109.403 	"/>
</g>
<g>
	<defs>
		<path id="SVGID_8_" d="M387.048,78.829c0,0,1.437-7.333-0.313-14.125c4.199-2.874,9.066-4.464,13.236-4.567
			c1.436,2.252,1.918,5.45,2.14,6.696c0.24,1.447,1.387,8.542,3.112,8.519c0.705-0.015,0.926-1.081,0.926-1.081
			c0.945-7.095,0.966-10.558,0.826-12.223c0.421,0.341,0.862,0.707,1.166,1.146c3.396,4.949,1.087,22.869,1.087,22.869
			s0.279,11.415-0.464,20.804c-0.212-1.102-1.346-6.288-2.484-2.509c-1.274,4.199-4.331,8.361-4.331,8.361
			c-0.401,3.016,3.317,5.183,3.317,5.183c1.164-0.662,1.938-1.889,2.481-3.279c-0.492,2.176-1.116,3.727-1.918,4.168
			c-4.161,2.33-15.899,3.675-18.994-1.089c-3.096-4.764-12.28-27.175-11.836-29.304c0,0,2.117-11.213,6.95-18.651
			c0.303,1.451,1.509,6.872,2.574,9.207c0.396,0.856,0.801,1.146,1.166,1.146C386.454,80.1,387.048,78.829,387.048,78.829
			 M390.915,54.369c1.027-0.337,1.609-2.447,1.981-3.314c0.431-1.008,1.457-1.648,2.408-1.83c0.96-0.14,2.326-0.221,2.746,1.07
			c0.405,1.284-1.427,3.451-6.21,4.859c-1.941,0.582-6.383,2.112-10.874,0.702c-0.844-0.26-2.933-2.467-0.584-3.796
			c2.353-1.285,8.884,2.087,8.884,2.087c0.225,0.121,0.619,0.305,1.102,0.305C390.54,54.452,390.724,54.429,390.915,54.369
			 M387.14,45.544c-1.571-4.662-1.571-8.074-1.571-8.074c0.061,1.484,2.179,5.909,2.616,7.036c0.4,1.163,1.446,1.383,2.469,1.001
			c0.746-0.301,1.429-0.844,1.188-1.408c-0.18-0.403-0.291-1.448-0.493-1.827c0.291,0.444,1.859,2.751,3.901,2.791
			c0.129,0,0.25-0.014,0.368-0.04c-0.221,0.442-0.221,0.883,0.102,1.249c0.483,0.601,1.507,0.681,2.251,0.198
			c0.744-0.482,0.945-1.323,0.463-1.93c-0.261-0.301-0.664-0.477-1.105-0.477c0.503-0.601,0.904-1.329,1.789-1.734
			c1.648-0.76,2.412,2.514,2.412,2.514c0.03,1.831-1.388,2.915-3.235,3.54c-5.286-1.188-10.241,1.624-10.241,1.624
			s-10.109-1.444-12.632,3.739c-0.683,0.203-1.469,0.523-2.353,1.006c-3.638,1.909-9.124,3.461-11.733,0.442
			c0,0-1.913-3.861,0.89-4.058c1.259-0.102,2.305,0.401,3.471,0.786c-0.315,0.259-0.545,0.579-0.566,0.924
			c-0.081,0.86,0.926,1.545,2.19,1.545c1.288,0.04,2.332-0.645,2.393-1.486c0.02-0.302-0.12-0.565-0.342-0.804
			c0.494-0.12,1.027-0.325,1.597-0.587c2.865-1.343,3.278-6.166,3.227-6.713c0.104,0.426,1.138,2.996,1.069,3.441
			c-0.103,0.561,0.262,1.165,2.811,0.342c2.463-0.787,2.434-0.985,2-2.173c-0.434-1.184-2.038-5.906-3.046-7.255
			c0,0,2.464,3.015,4.342,7.797c0,0-0.181,0.646,1.276,0.383l0.009,0.021c0,0,0.164-0.043,0.443-0.124
			c1.269-0.32,2.312-0.559,2.855-0.677c0.263-0.086,0.43-0.124,0.43-0.124h-0.009C387.701,45.988,387.14,45.544,387.14,45.544
			 M395.378,30.049c-4.543,0.484-9.799,2.313-12.804,3.637c-3.093,1.374-4.663,1.374-4.663,1.374l0.021,0.076l-0.061-0.076
			c0,0-1.407,0.539-5.298,0.358c-4.057-0.199-10.752-0.161-16.941,1.165c-6.563,1.409-13.177,9.429-5.438,18.491
			c0,0,4.202,4.181,7.48,4.503c0,0,1.054,5.625,6.811,2.614c4.189-2.209,6.836-4.501,10.423-6.755
			c-1.359,7.198-1.659,31.881-1.659,31.881s-0.664,3.176,0.34,5.863c0.976,2.735,8.636,28.619,8.636,28.619s1.533,7.32,7.314,7.638
			c5.78,0.326,16.318,0.688,19.387-7.072c3.056-7.743,1.122-55.15,1.122-55.15s1.299-6.993-5.444-14.915
			c-0.464-0.561-0.966-1.04-1.468-1.467c0.062,0,0.14,0.018,0.19,0c4.272-0.199,2.193-4.2,2.193-4.2
			c1.396-1.31,1.477-5.306,1.477-5.306c-0.43-7.424-6.579-11.314-10.914-11.314C395.841,30.013,395.606,30.025,395.378,30.049"/>
	</defs>
	<clipPath id="SVGID_9_">
		<use xlink:href="#SVGID_8_"  overflow="visible"/>
	</clipPath>
	
		<linearGradient id="SVGID_10_" gradientUnits="userSpaceOnUse" x1="-366" y1="497.9395" x2="-365" y2="497.9395" gradientTransform="matrix(135.4237 119.9274 119.9274 -135.4237 -9821.9102 111363.8906)">
		<stop  offset="0" style="stop-color:#838382"/>
		<stop  offset="0.0056" style="stop-color:#838382"/>
		<stop  offset="0.2086" style="stop-color:#E5E5E5"/>
		<stop  offset="0.2822" style="stop-color:#FFFFFF"/>
		<stop  offset="0.3223" style="stop-color:#F3F3F3"/>
		<stop  offset="0.4015" style="stop-color:#D2D2D2"/>
		<stop  offset="0.4049" style="stop-color:#D0D0D0"/>
		<stop  offset="0.5955" style="stop-color:#ACACAC"/>
		<stop  offset="0.6994" style="stop-color:#E0E0E0"/>
		<stop  offset="0.7485" style="stop-color:#BDBCBC"/>
		<stop  offset="0.9939" style="stop-color:#FFFFFF"/>
		<stop  offset="1" style="stop-color:#FFFFFF"/>
	</linearGradient>
	<polygon clip-path="url(#SVGID_9_)" fill="url(#SVGID_10_)" points="373.015,-4.494 461.67,74.016 381.422,164.633 292.768,86.122 
			"/>
</g>
<g>
	<defs>
		<path id="SVGID_11_" d="M390.915,54.369c1.027-0.337,1.609-2.447,1.981-3.314c0.431-1.008,1.457-1.648,2.408-1.83
			c0.96-0.14,2.326-0.221,2.746,1.07c0.405,1.284-1.427,3.451-6.21,4.859c-1.941,0.582-6.383,2.112-10.874,0.702
			c-0.844-0.26-2.933-2.467-0.584-3.796c2.353-1.285,8.884,2.087,8.884,2.087c0.225,0.121,0.619,0.305,1.102,0.305
			C390.54,54.452,390.724,54.429,390.915,54.369 M387.14,45.544c-1.571-4.662-1.571-8.074-1.571-8.074
			c0.061,1.484,2.179,5.909,2.616,7.036c0.4,1.163,1.446,1.383,2.469,1.001c0.746-0.301,1.429-0.844,1.188-1.408
			c-0.18-0.403-0.291-1.448-0.493-1.827c0.291,0.444,1.859,2.751,3.901,2.791c0.129,0,0.25-0.014,0.368-0.04
			c-0.221,0.442-0.221,0.883,0.102,1.249c0.483,0.601,1.507,0.681,2.251,0.198c0.744-0.482,0.945-1.323,0.463-1.93
			c-0.261-0.301-0.664-0.477-1.105-0.477c0.503-0.601,0.904-1.329,1.789-1.734c1.648-0.76,2.412,2.514,2.412,2.514
			c0.03,1.831-1.388,2.915-3.235,3.54c-5.286-1.188-10.241,1.624-10.241,1.624s-10.109-1.444-12.632,3.739
			c-0.683,0.203-1.469,0.523-2.353,1.006c-3.638,1.909-9.124,3.461-11.733,0.442c0,0-1.913-3.861,0.89-4.058
			c1.259-0.102,2.305,0.401,3.471,0.786c-0.315,0.259-0.545,0.579-0.566,0.924c-0.081,0.86,0.926,1.545,2.19,1.545
			c1.288,0.04,2.332-0.645,2.393-1.486c0.02-0.302-0.12-0.565-0.342-0.804c0.494-0.12,1.027-0.325,1.597-0.587
			c2.865-1.343,3.278-6.166,3.227-6.713c0.104,0.426,1.138,2.996,1.069,3.441c-0.103,0.561,0.262,1.165,2.811,0.342
			c2.463-0.787,2.434-0.985,2-2.173c-0.434-1.184-2.038-5.906-3.046-7.255c0,0,2.464,3.015,4.342,7.797c0,0-0.181,0.646,1.276,0.383
			l0.009,0.021c0,0,0.164-0.043,0.443-0.124c1.269-0.32,2.312-0.559,2.855-0.677c0.263-0.086,0.43-0.124,0.43-0.124h-0.009
			C387.701,45.988,387.14,45.544,387.14,45.544 M395.378,30.049c-4.543,0.484-9.799,2.313-12.804,3.637
			c-3.093,1.374-4.663,1.374-4.663,1.374l0.021,0.076l-0.061-0.076c0,0-1.407,0.539-5.298,0.358
			c-4.057-0.199-10.752-0.161-16.941,1.165c-6.563,1.409-13.177,9.429-5.438,18.491c0,0,4.202,4.181,7.48,4.503
			c0,0,1.054,5.625,6.811,2.614c4.189-2.209,6.836-4.501,10.423-6.755l7.042,14.31c0.303,1.451,1.509,6.872,2.574,9.207
			c1.227,2.652,2.523-0.124,2.523-0.124s1.437-7.333-0.313-14.125c4.199-2.874,9.066-4.464,13.236-4.567
			c1.436,2.252,1.918,5.45,2.14,6.696c0.24,1.447,1.387,8.542,3.112,8.519c0.705-0.015,0.926-1.081,0.926-1.081
			c0.945-7.095,0.966-10.558,0.826-12.223c0.421,0.341,0.862,0.707,1.166,1.146l1.906,4.021c0,0,1.299-6.993-5.444-14.915
			c-0.464-0.561-0.966-1.04-1.468-1.467c0.062,0,0.14,0.018,0.19,0c4.272-0.199,2.193-4.2,2.193-4.2
			c1.396-1.31,1.477-5.306,1.477-5.306c-0.43-7.424-6.579-11.314-10.914-11.314C395.841,30.013,395.606,30.025,395.378,30.049"/>
	</defs>
	<clipPath id="SVGID_12_">
		<use xlink:href="#SVGID_11_"  overflow="visible"/>
	</clipPath>
	
		<linearGradient id="SVGID_13_" gradientUnits="userSpaceOnUse" x1="-366" y1="497.9512" x2="-365" y2="497.9512" gradientTransform="matrix(135.4239 119.9276 119.9276 -135.4239 -9811.6797 111352.5078)">
		<stop  offset="0" style="stop-color:#838382"/>
		<stop  offset="0.0056" style="stop-color:#838382"/>
		<stop  offset="0.2086" style="stop-color:#E5E5E5"/>
		<stop  offset="0.2822" style="stop-color:#FFFFFF"/>
		<stop  offset="0.3223" style="stop-color:#F3F3F3"/>
		<stop  offset="0.4015" style="stop-color:#D2D2D2"/>
		<stop  offset="0.4049" style="stop-color:#D0D0D0"/>
		<stop  offset="0.5955" style="stop-color:#ACACAC"/>
		<stop  offset="0.6994" style="stop-color:#E0E0E0"/>
		<stop  offset="0.7485" style="stop-color:#BDBCBC"/>
		<stop  offset="0.9939" style="stop-color:#FFFFFF"/>
		<stop  offset="1" style="stop-color:#FFFFFF"/>
	</linearGradient>
	<polygon clip-path="url(#SVGID_12_)" fill="url(#SVGID_13_)" points="372.736,-4.18 436.954,52.689 381.066,115.798 316.85,58.928 
			"/>
</g>
</svg>
